ffmpeg started on 2020-02-01 at 02:09:26
Report written to "/root/radio/log/232.50.51.22"
Command line:
/root/bin/ffmpeg -threads 0 -re -reconnect 1 -reconnect_at_eof 1 -reconnect_streamed 1 -reconnect_delay_max 4294 -i http://stream.radio-ptuj.si:8000 -c:a mp2 -b:a 192k -map_metadata 0 -muxdelay 0 -metadata "service_provider=Telemach" -metadata "service_name=Radio Ptuj" -maxrate 256k -minrate 192k -bufsize 256k -mpegts_service_type digital_radio -mpegts_service_id 14444 -mpegts_pmt_start_pid 4400 -mpegts_start_pid 1401 -f mpegts "udp://232.50.51.22:5200?localaddr=172.20.188.178&pkt_size=188"
ffmpeg version N-89954-g48bc9ff Copyright (c) 2000-2018 the FFmpeg developers
  built with gcc 4.8.5 (GCC) 20150623 (Red Hat 4.8.5-16)
  configuration: --prefix=/root/ffmpeg_build --pkg-config-flags=--static --extra-cflags=-I/root/ffmpeg_build/include --extra-ldflags=-L/root/ffmpeg_build/lib --extra-libs=-lpthread --extra-libs=-lm --bindir=/root/bin --enable-gpl --enable-libfdk_aac --enable-libfreetype --enable-libmp3lame --enable-libopus --enable-libvorbis --enable-libvpx --enable-libx264 --enable-libx265 --enable-nonfree
  libavutil      56.  7.100 / 56.  7.100
  libavcodec     58.  9.100 / 58.  9.100
  libavformat    58.  7.100 / 58.  7.100
  libavdevice    58.  0.101 / 58.  0.101
  libavfilter     7. 11.101 /  7. 11.101
  libswscale      5.  0.101 /  5.  0.101
  libswresample   3.  0.101 /  3.  0.101
  libpostproc    55.  0.100 / 55.  0.100
Splitting the commandline.
Reading option '-threads' ... matched as AVOption 'threads' with argument '0'.
Reading option '-re' ... matched as option 're' (read input at native frame rate) with argument '1'.
Reading option '-reconnect' ... matched as AVOption 'reconnect' with argument '1'.
Reading option '-reconnect_at_eof' ... matched as AVOption 'reconnect_at_eof' with argument '1'.
Reading option '-reconnect_streamed' ... matched as AVOption 'reconnect_streamed' with argument '1'.
Reading option '-reconnect_delay_max' ... matched as AVOption 'reconnect_delay_max' with argument '4294'.
Reading option '-i' ... matched as input url with argument 'http://stream.radio-ptuj.si:8000'.
Reading option '-c:a' ... matched as option 'c' (codec name) with argument 'mp2'.
Reading option '-b:a' ... matched as option 'b' (video bitrate (please use -b:v)) with argument '192k'.
Reading option '-map_metadata' ... matched as option 'map_metadata' (set metadata information of outfile from infile) with argument '0'.
Reading option '-muxdelay' ... matched as option 'muxdelay' (set the maximum demux-decode delay) with argument '0'.
Reading option '-metadata' ... matched as option 'metadata' (add metadata) with argument 'service_provider=Telemach'.
Reading option '-metadata' ... matched as option 'metadata' (add metadata) with argument 'service_name=Radio Ptuj'.
Reading option '-maxrate' ... matched as AVOption 'maxrate' with argument '256k'.
Reading option '-minrate' ... matched as AVOption 'minrate' with argument '192k'.
Reading option '-bufsize' ... matched as AVOption 'bufsize' with argument '256k'.
Reading option '-mpegts_service_type' ... matched as AVOption 'mpegts_service_type' with argument 'digital_radio'.
Reading option '-mpegts_service_id' ... matched as AVOption 'mpegts_service_id' with argument '14444'.
Reading option '-mpegts_pmt_start_pid' ... matched as AVOption 'mpegts_pmt_start_pid' with argument '4400'.
Reading option '-mpegts_start_pid' ... matched as AVOption 'mpegts_start_pid' with argument '1401'.
Reading option '-f' ... matched as option 'f' (force format) with argument 'mpegts'.
Reading option 'udp://232.50.51.22:5200?localaddr=172.20.188.178&pkt_size=188' ... matched as output url.
Finished splitting the commandline.
Parsing a group of options: global .
Successfully parsed a group of options.
Parsing a group of options: input url http://stream.radio-ptuj.si:8000.
Applying option re (read input at native frame rate) with argument 1.
Successfully parsed a group of options.
Opening an input file: http://stream.radio-ptuj.si:8000.
[NULL @ 0x3fed240] Opening 'http://stream.radio-ptuj.si:8000' for reading
[http @ 0x3fed9c0] Setting default whitelist 'http,https,tls,rtp,tcp,udp,crypto,httpproxy'
[http @ 0x3fed9c0] request: GET / HTTP/1.1
User-Agent: Lavf/58.7.100
Accept: */*
Range: bytes=0-
Connection: close
Host: stream.radio-ptuj.si:8000
Icy-MetaData: 1


[mp3 @ 0x3fed240] Format mp3 probed with size=4096 and score=51
[mp3 @ 0x3fed240] Skipping 0 bytes of junk at 0.
[mp3 @ 0x3fed240] Before avformat_find_stream_info() pos: 0 bytes read:5472 seeks:0 nb_streams:1
[mp3 @ 0x3fed240] All info found
[mp3 @ 0x3fed240] After avformat_find_stream_info() pos: 21504 bytes read:23224 seeks:0 frames:50
Input #0, mp3, from 'http://stream.radio-ptuj.si:8000':
  Metadata:
    icy-notice1     : <BR>This stream requires <a href="http://www.winamp.com">Winamp</a><BR>
    icy-notice2     : SHOUTcast DNAS/posix(linux x86) v2.5.1.723<BR>
    icy-name        : Radio Ptuj: RADIO PTUJ
    icy-genre       : Misc
    icy-br          : 128
    icy-sr          : 44100
    icy-url         : http://www.shoutcast.com
    icy-pub         : 1
  Duration: N/A, start: 0.000000, bitrate: 128 kb/s
    Stream #0:0, 50, 1/14112000: Audio: mp3, 44100 Hz, stereo, s16p, 128 kb/s
Successfully opened the file.
Parsing a group of options: output url udp://232.50.51.22:5200?localaddr=172.20.188.178&pkt_size=188.
Applying option c:a (codec name) with argument mp2.
Applying option b:a (video bitrate (please use -b:v)) with argument 192k.
Applying option map_metadata (set metadata information of outfile from infile) with argument 0.
Applying option muxdelay (set the maximum demux-decode delay) with argument 0.
Applying option metadata (add metadata) with argument service_provider=Telemach.
Applying option metadata (add metadata) with argument service_name=Radio Ptuj.
Applying option f (force format) with argument mpegts.
Successfully parsed a group of options.
Opening an output file: udp://232.50.51.22:5200?localaddr=172.20.188.178&pkt_size=188.
[udp @ 0x3ff4340] No default whitelist set
Successfully opened the file.
Stream mapping:
  Stream #0:0 -> #0:0 (mp3 (native) -> mp2 (native))
Press [q] to stop, [?] for help
cur_dts is invalid (this is harmless if it occurs once at the start per stream)
detected 4 logical cores
[graph_0_in_0_0 @ 0x402c640] Setting 'time_base' to value '1/44100'
[graph_0_in_0_0 @ 0x402c640] Setting 'sample_rate' to value '44100'
[graph_0_in_0_0 @ 0x402c640] Setting 'sample_fmt' to value 's16p'
[graph_0_in_0_0 @ 0x402c640] Setting 'channel_layout' to value '0x3'
[graph_0_in_0_0 @ 0x402c640] tb:1/44100 samplefmt:s16p samplerate:44100 chlayout:0x3
[format_out_0_0 @ 0x3fecec0] Setting 'sample_fmts' to value 's16'
[format_out_0_0 @ 0x3fecec0] Setting 'sample_rates' to value '44100|48000|32000|22050|24000|16000'
[format_out_0_0 @ 0x3fecec0] Setting 'channel_layouts' to value '0x4|0x3'
[format_out_0_0 @ 0x3fecec0] auto-inserting filter 'auto_resampler_0' between the filter 'Parsed_anull_0' and the filter 'format_out_0_0'
[AVFilterGraph @ 0x3fecd40] query_formats: 4 queried, 6 merged, 3 already done, 0 delayed
[auto_resampler_0 @ 0x402fa00] [SWR @ 0x402ff00] Using s16p internally between filters
[auto_resampler_0 @ 0x402fa00] ch:2 chl:stereo fmt:s16p r:44100Hz -> ch:2 chl:stereo fmt:s16 r:44100Hz
[mpegts @ 0x3ff2d40] muxrate VBR, pcr every 3 pkts, sdt every 200, pat/pmt every 40 pkts
Output #0, mpegts, to 'udp://232.50.51.22:5200?localaddr=172.20.188.178&pkt_size=188':
  Metadata:
    icy-notice1     : <BR>This stream requires <a href="http://www.winamp.com">Winamp</a><BR>
    icy-notice2     : SHOUTcast DNAS/posix(linux x86) v2.5.1.723<BR>
    icy-name        : Radio Ptuj: RADIO PTUJ
    icy-genre       : Misc
    icy-br          : 128
    icy-sr          : 44100
    icy-url         : http://www.shoutcast.com
    icy-pub         : 1
    service_provider: Telemach
    service_name    : Radio Ptuj
    encoder         : Lavf58.7.100
    Stream #0:0, 0, 1/90000: Audio: mp2, 44100 Hz, stereo, s16, 192 kb/s
    Metadata:
      encoder         : Lavc58.9.100 mp2
size=      15kB time=00:00:00.51 bitrate= 238.1kbits/s speed=1.02x    size=      30kB time=00:00:01.00 bitrate= 240.3kbits/s speed=   1x    size=      44kB time=00:00:01.50 bitrate= 242.0kbits/s speed=0.999x    size=      59kB time=00:00:02.00 bitrate= 242.1kbits/s speed=0.996x    size=      75kB time=00:00:02.52 bitrate= 242.0kbits/s speed=1.01x    size=      89kB time=00:00:03.01 bitrate= 242.6kbits/s speed=   1x    size=     104kB time=00:00:03.51 bitrate= 242.6kbits/s speed=   1x    size=     119kB time=00:00:04.01 bitrate= 242.9kbits/s speed=0.999x    size=     134kB time=00:00:04.50 bitrate= 242.9kbits/s speed=0.998x    size=     149kB time=00:00:05.03 bitrate= 242.8kbits/s speed=   1x    size=     164kB time=00:00:05.52 bitrate= 243.0kbits/s speed=   1x    size=     178kB time=00:00:06.02 bitrate= 242.5kbits/s speed=   1x    size=     193kB time=00:00:06.51 bitrate= 242.5kbits/s speed=0.999x    size=     209kB time=00:00:07.04 bitrate= 242.6kbits/s speed=   1x    size=     223kB time=00:00:07.53 bitrate= 242.6kbits/s speed=   1x    size=     238kB time=00:00:08.03 bitrate= 242.8kbits/s speed=   1x    size=     253kB time=00:00:08.53 bitrate= 242.8kbits/s speed=0.999x    size=     267kB time=00:00:09.02 bitrate= 242.7kbits/s speed=0.999x    size=     283kB time=00:00:09.54 bitrate= 242.8kbits/s speed=   1x    size=     298kB time=00:00:10.04 bitrate= 242.8kbits/s speed=   1x    size=     313kB time=00:00:10.54 bitrate= 242.9kbits/s speed=0.999x    size=     328kB time=00:00:11.06 bitrate= 242.9kbits/s speed=   1x    size=     343kB time=00:00:11.56 bitrate= 242.9kbits/s speed=   1x    size=     358kB time=00:00:12.05 bitrate= 243.0kbits/s speed=   1x    size=     372kB time=00:00:12.55 bitrate= 242.7kbits/s speed=0.999x    size=     387kB time=00:00:13.07 bitrate= 242.7kbits/s speed=   1x    size=     402kB time=00:00:13.57 bitrate= 242.8kbits/s speed=   1x    size=     417kB time=00:00:14.06 bitrate= 242.8kbits/s speed=   1x    size=     432kB time=00:00:14.56 bitrate= 242.9kbits/s speed=   1x    size=     447kB time=00:00:15.08 bitrate= 242.8kbits/s speed=   1x    size=     462kB time=00:00:15.58 bitrate= 242.8kbits/s speed=   1x    size=     477kB time=00:00:16.08 bitrate= 242.9kbits/s speed=   1x    size=     491kB time=00:00:16.57 bitrate= 242.9kbits/s speed=   1x    size=     506kB time=00:00:17.07 bitrate= 243.0kbits/s speed=   1x    size=     522kB time=00:00:17.59 bitrate= 242.9kbits/s speed=   1x    size=     536kB time=00:00:18.09 bitrate= 242.9kbits/s speed=   1x    size=     551kB time=00:00:18.58 bitrate= 243.0kbits/s speed=   1x    size=     566kB time=00:00:19.08 bitrate= 242.8kbits/s speed=   1x    size=     580kB time=00:00:19.58 bitrate= 242.8kbits/s speed=   1x    size=     596kB time=00:00:20.10 bitrate= 242.8kbits/s speed=   1x    size=     611kB time=00:00:20.59 bitrate= 242.8kbits/s speed=   1x    size=     626kB time=00:00:21.09 bitrate= 242.9kbits/s speed=   1x    size=     640kB time=00:00:21.59 bitrate= 242.9kbits/s speed=   1x    size=     656kB time=00:00:22.11 bitrate= 242.9kbits/s speed=   1x    size=     670kB time=00:00:22.61 bitrate= 242.9kbits/s speed=   1x    size=     685kB time=00:00:23.10 bitrate= 242.9kbits/s speed=   1x    size=     700kB time=00:00:23.60 bitrate= 243.0kbits/s speed=   1x    size=     715kB time=00:00:24.10 bitrate= 242.9kbits/s speed=   1x    size=     730kB time=00:00:24.62 bitrate= 242.9kbits/s speed=   1x    size=     745kB time=00:00:25.11 bitrate= 243.0kbits/s speed=   1x    size=     759kB time=00:00:25.61 bitrate= 242.8kbits/s speed=   1x    size=     774kB time=00:00:26.11 bitrate= 242.8kbits/s speed=   1x    size=     790kB time=00:00:26.63 bitrate= 242.9kbits/s speed=   1x    size=     804kB time=00:00:27.13 bitrate= 242.9kbits/s speed=   1x    size=     819kB time=00:00:27.62 bitrate= 242.9kbits/s speed=   1x    size=     834kB time=00:00:28.12 bitrate= 242.9kbits/s speed=   1x    size=     849kB time=00:00:28.61 bitrate= 242.9kbits/s speed=   1x    size=     864kB time=00:00:29.14 bitrate= 242.9kbits/s speed=   1x    size=     879kB time=00:00:29.63 bitrate= 242.9kbits/s speed=   1x    size=     894kB time=00:00:30.13 bitrate= 243.0kbits/s speed=   1x    size=     908kB time=00:00:30.63 bitrate= 243.0kbits/s speed=   1x    size=     923kB time=00:00:31.12 bitrate= 242.9kbits/s speed=   1x    size=     939kB time=00:00:31.64 bitrate= 243.0kbits/s speed=   1x    size=     953kB time=00:00:32.14 bitrate= 242.9kbits/s speed=   1x    size=     968kB time=00:00:32.64 bitrate= 242.9kbits/s speed=   1x    size=     983kB time=00:00:33.13 bitrate= 242.9kbits/s speed=   1x    size=     998kB time=00:00:33.66 bitrate= 242.9kbits/s speed=   1x    size=    1013kB time=00:00:34.15 bitrate= 242.9kbits/s speed=   1x    size=    1028kB time=00:00:34.65 bitrate= 242.9kbits/s speed=   1x    size=    1042kB time=00:00:35.14 bitrate= 242.9kbits/s speed=   1x    size=    1057kB time=00:00:35.64 bitrate= 242.9kbits/s speed=   1x    size=    1073kB time=00:00:36.16 bitrate= 242.9kbits/s speed=   1x    size=    1087kB time=00:00:36.66 bitrate= 243.0kbits/s speed=   1x    size=    1102kB time=00:00:37.16 bitrate= 243.0kbits/s speed=   1x    size=    1117kB time=00:00:37.65 bitrate= 242.9kbits/s speed=   1x    size=    1132kB time=00:00:38.18 bitrate= 243.0kbits/s speed=   1x    size=    1147kB time=00:00:38.67 bitrate= 242.9kbits/s speed=   1x    size=    1161kB time=00:00:39.17 bitrate= 242.9kbits/s speed=   1x    size=    1176kB time=00:00:39.66 bitrate= 242.9kbits/s speed=   1x    size=    1191kB time=00:00:40.16 bitrate= 242.9kbits/s speed=   1x    size=    1207kB time=00:00:40.68 bitrate= 242.9kbits/s speed=   1x    size=    1221kB time=00:00:41.18 bitrate= 242.9kbits/s speed=   1x    size=    1236kB time=00:00:41.68 bitrate= 242.9kbits/s speed=   1x    size=    1251kB time=00:00:42.17 bitrate= 242.9kbits/s speed=   1x    size=    1266kB time=00:00:42.69 bitrate= 242.9kbits/s speed=   1x    size=    1281kB time=00:00:43.19 bitrate= 243.0kbits/s speed=   1x    size=    1296kB time=00:00:43.69 bitrate= 243.0kbits/s speed=   1x    size=    1310kB time=00:00:44.18 bitrate= 243.0kbits/s speed=   1x    size=    1325kB time=00:00:44.68 bitrate= 242.9kbits/s speed=   1x    size=    1340kB time=00:00:45.20 bitrate= 242.9kbits/s speed=   1x    size=    1355kB time=00:00:45.70 bitrate= 242.9kbits/s speed=   1x    size=    1370kB time=00:00:46.19 bitrate= 242.9kbits/s speed=   1x    size=    1385kB time=00:00:46.69 bitrate= 242.9kbits/s speed=   1x    size=    1400kB time=00:00:47.21 bitrate= 242.9kbits/s speed=   1x    size=    1415kB time=00:00:47.71 bitrate= 242.9kbits/s speed=   1x    size=    1430kB time=00:00:48.21 bitrate= 242.9kbits/s speed=   1x    size=    1445kB time=00:00:48.70 bitrate= 242.9kbits/s speed=   1x    size=    1459kB time=00:00:49.20 bitrate= 242.9kbits/s speed=   1x    size=    1475kB time=00:00:49.72 bitrate= 243.0kbits/s speed=   1x    size=    1489kB time=00:00:50.22 bitrate= 243.0kbits/s speed=   1x    size=    1504kB time=00:00:50.71 bitrate= 243.0kbits/s speed=   1x    size=    1519kB time=00:00:51.21 bitrate= 242.9kbits/s speed=   1x    size=    1534kB time=00:00:51.73 bitrate= 242.9kbits/s speed=   1x    size=    1549kB time=00:00:52.23 bitrate= 242.9kbits/s speed=   1x    size=    1564kB time=00:00:52.73 bitrate= 242.9kbits/s speed=   1x    size=    1578kB time=00:00:53.22 bitrate= 242.9kbits/s speed=   1x    size=    1593kB time=00:00:53.72 bitrate= 242.9kbits/s speed=   1x    size=    1609kB time=00:00:54.24 bitrate= 242.9kbits/s speed=   1x    size=    1623kB time=00:00:54.74 bitrate= 242.9kbits/s speed=   1x    size=    1638kB time=00:00:55.23 bitrate= 243.0kbits/s speed=   1x    size=    1653kB time=00:00:55.73 bitrate= 242.9kbits/s speed=   1x    size=    1668kB time=00:00:56.23 bitrate= 243.0kbits/s speed=   1x    size=    1683kB time=00:00:56.75 bitrate= 243.0kbits/s speed=   1x    size=    1698kB time=00:00:57.24 bitrate= 243.0kbits/s speed=   1x    size=    1712kB time=00:00:57.74 bitrate= 242.9kbits/s speed=   1x    size=    1728kB time=00:00:58.26 bitrate= 242.9kbits/s speed=   1x    size=    1742kB time=00:00:58.76 bitrate= 242.9kbits/s speed=   1x    size=    1757kB time=00:00:59.26 bitrate= 242.9kbits/s speed=   1x    size=    1772kB time=00:00:59.75 bitrate= 242.9kbits/s speed=   1x    size=    1788kB time=00:01:00.27 bitrate= 242.9kbits/s speed=   1x    size=    1802kB time=00:01:00.77 bitrate= 242.9kbits/s speed=   1x    size=    1817kB time=00:01:01.27 bitrate= 242.9kbits/s speed=   1x    size=    1832kB time=00:01:01.76 bitrate= 243.0kbits/s speed=   1x    size=    1847kB time=00:01:02.26 bitrate= 242.9kbits/s speed=   1x    size=    1861kB time=00:01:02.76 bitrate= 243.0kbits/s speed=   1x    size=    1877kB time=00:01:03.28 bitrate= 243.0kbits/s speed=   1x    size=    1892kB time=00:01:03.78 bitrate= 243.0kbits/s speed=   1x    size=    1906kB time=00:01:04.27 bitrate= 242.9kbits/s speed=   1x    size=    1921kB time=00:01:04.77 bitrate= 242.9kbits/s speed=   1x    size=    1936kB time=00:01:05.29 bitrate= 242.9kbits/s speed=   1x    size=    1951kB time=00:01:05.79 bitrate= 242.9kbits/s speed=   1x    size=    1966kB time=00:01:06.28 bitrate= 242.9kbits/s speed=   1x    size=    1981kB time=00:01:06.78 bitrate= 242.9kbits/s speed=   1x    size=    1995kB time=00:01:07.28 bitrate= 242.9kbits/s speed=   1x    size=    2011kB time=00:01:07.80 bitrate= 242.9kbits/s speed=   1x    size=    2026kB time=00:01:08.29 bitrate= 243.0kbits/s speed=   1x    size=    2040kB time=00:01:08.79 bitrate= 243.0kbits/s speed=   1x    size=    2055kB time=00:01:09.29 bitrate= 243.0kbits/s speed=   1x    size=    2071kB time=00:01:09.81 bitrate= 243.0kbits/s speed=   1x    size=    2085kB time=00:01:10.31 bitrate= 243.0kbits/s speed=   1x    size=    2100kB time=00:01:10.80 bitrate= 242.9kbits/s speed=   1x    size=    2114kB time=00:01:11.30 bitrate= 242.9kbits/s speed=   1x    size=    2129kB time=00:01:11.79 bitrate= 242.9kbits/s speed=   1x    size=    2145kB time=00:01:12.32 bitrate= 242.9kbits/s speed=   1x    size=    2159kB time=00:01:12.81 bitrate= 242.9kbits/s speed=   1x    size=    2174kB time=00:01:13.31 bitrate= 243.0kbits/s speed=   1x    size=    2189kB time=00:01:13.81 bitrate= 242.9kbits/s speed=   1x    size=    2204kB time=00:01:14.33 bitrate= 242.9kbits/s speed=   1x    size=    2219kB time=00:01:14.82 bitrate= 243.0kbits/s speed=   1x    size=    2234kB time=00:01:15.32 bitrate= 243.0kbits/s speed=   1x    size=    2249kB time=00:01:15.82 bitrate= 243.0kbits/s speed=   1x    size=    2264kB time=00:01:16.31 bitrate= 243.0kbits/s speed=   1x    size=    2279kB time=00:01:16.84 bitrate= 243.0kbits/s speed=   1x    size=    2293kB time=00:01:17.33 bitrate= 242.9kbits/s speed=   1x    size=    2308kB time=00:01:17.83 bitrate= 242.9kbits/s speed=   1x    size=    2323kB time=00:01:18.33 bitrate= 242.9kbits/s speed=   1x    size=    2338kB time=00:01:18.85 bitrate= 242.9kbits/s speed=   1x    size=    2353kB time=00:01:19.34 bitrate= 242.9kbits/s speed=   1x    size=    2368kB time=00:01:19.84 bitrate= 243.0kbits/s speed=   1x    size=    2383kB time=00:01:20.34 bitrate= 242.9kbits/s speed=   1x    size=    2398kB time=00:01:20.86 bitrate= 242.9kbits/s speed=   1x    size=    2413kB time=00:01:21.36 bitrate= 243.0kbits/s speed=   1x    size=    2428kB time=00:01:21.85 bitrate= 243.0kbits/s speed=   1x    size=    2443kB time=00:01:22.35 bitrate= 243.0kbits/s speed=   1x    size=    2457kB time=00:01:22.84 bitrate= 243.0kbits/s speed=   1x    size=    2473kB time=00:01:23.37 bitrate= 243.0kbits/s speed=   1x    size=    2487kB time=00:01:23.86 bitrate= 242.9kbits/s speed=   1x    size=    2502kB time=00:01:24.36 bitrate= 242.9kbits/s speed=   1x    size=    2517kB time=00:01:24.86 bitrate= 242.9kbits/s speed=   1x    size=    2531kB time=00:01:25.35 bitrate= 242.9kbits/s speed=   1x    size=    2547kB time=00:01:25.87 bitrate= 242.9kbits/s speed=   1x    size=    2562kB time=00:01:26.37 bitrate= 243.0kbits/s speed=   1x    size=    2576kB time=00:01:26.87 bitrate= 242.9kbits/s speed=   1x    size=    2591kB time=00:01:27.36 bitrate= 242.9kbits/s speed=   1x    size=    2606kB time=00:01:27.86 bitrate= 243.0kbits/s speed=   1x    size=    2621kB time=00:01:28.38 bitrate= 243.0kbits/s speed=   1x    size=    2636kB time=00:01:28.88 bitrate= 243.0kbits/s speed=   1x    size=    2651kB time=00:01:29.38 bitrate= 243.0kbits/s speed=   1x    size=    2665kB time=00:01:29.87 bitrate= 242.9kbits/s speed=   1x    size=    2681kB time=00:01:30.39 bitrate= 242.9kbits/s speed=   1x    size=    2696kB time=00:01:30.89 bitrate= 242.9kbits/s speed=   1x    size=    2710kB time=00:01:31.39 bitrate= 242.9kbits/s speed=   1x    size=    2725kB time=00:01:31.88 bitrate= 242.9kbits/s speed=   1x    size=    2740kB time=00:01:32.38 bitrate= 242.9kbits/s speed=   1x    size=    2755kB time=00:01:32.90 bitrate= 243.0kbits/s speed=   1x    size=    2770kB time=00:01:33.40 bitrate= 243.0kbits/s speed=   1x    size=    2785kB time=00:01:33.89 bitrate= 242.9kbits/s speed=   1x    size=    2800kB time=00:01:34.39 bitrate= 243.0kbits/s speed=   1x    size=    2815kB time=00:01:34.91 bitrate= 243.0kbits/s speed=   1x    size=    2830kB time=00:01:35.41 bitrate= 243.0kbits/s speed=   1x    size=    2845kB time=00:01:35.91 bitrate= 243.0kbits/s speed=   1x    size=    2859kB time=00:01:36.40 bitrate= 242.9kbits/s speed=   1x    size=    2874kB time=00:01:36.90 bitrate= 242.9kbits/s speed=   1x    size=    2889kB time=00:01:37.42 bitrate= 242.9kbits/s speed=   1x    size=    2904kB time=00:01:37.92 bitrate= 242.9kbits/s speed=   1x    size=    2919kB time=00:01:38.41 bitrate= 242.9kbits/s speed=   1x    size=    2933kB time=00:01:38.91 bitrate= 242.9kbits/s speed=   1x    size=    2948kB time=00:01:39.41 bitrate= 243.0kbits/s speed=   1x    size=    2964kB time=00:01:39.93 bitrate= 243.0kbits/s speed=   1x    size=    2978kB time=00:01:40.42 bitrate= 242.9kbits/s speed=   1x    size=    2993kB time=00:01:40.92 bitrate= 243.0kbits/s speed=   1x    size=    3009kB time=00:01:41.44 bitrate= 243.0kbits/s speed=   1x    size=    3024kB time=00:01:41.94 bitrate= 243.0kbits/s speed=   1x    size=    3038kB time=00:01:42.44 bitrate= 243.0kbits/s speed=   1x    size=    3053kB time=00:01:42.93 bitrate= 242.9kbits/s speed=   1x    size=    3067kB time=00:01:43.43 bitrate= 242.9kbits/s speed=   1x    size=    3083kB time=00:01:43.95 bitrate= 242.9kbits/s speed=   1x    size=    3098kB time=00:01:44.45 bitrate= 242.9kbits/s speed=   1x    size=    3112kB time=00:01:44.94 bitrate= 242.9kbits/s speed=   1x    size=    3127kB time=00:01:45.44 bitrate= 242.9kbits/s speed=   1x    size=    3143kB time=00:01:45.96 bitrate= 243.0kbits/s speed=   1x    size=    3157kB time=00:01:46.46 bitrate= 243.0kbits/s speed=   1x    size=    3172kB time=00:01:46.96 bitrate= 243.0kbits/s speed=   1x    size=    3187kB time=00:01:47.45 bitrate= 243.0kbits/s speed=   1x    size=    3202kB time=00:01:47.95 bitrate= 243.0kbits/s speed=   1x    size=    3217kB time=00:01:48.47 bitrate= 243.0kbits/s speed=   1x    size=    3232kB time=00:01:48.97 bitrate= 243.0kbits/s speed=   1x    size=    3246kB time=00:01:49.46 bitrate= 242.9kbits/s speed=   1x    size=    3261kB time=00:01:49.96 bitrate= 242.9kbits/s speed=   1x    size=    3276kB time=00:01:50.46 bitrate= 242.9kbits/s speed=   1x    size=    3291kB time=00:01:50.98 bitrate= 242.9kbits/s speed=   1x    size=    3306kB time=00:01:51.47 bitrate= 243.0kbits/s speed=   1x    size=    3321kB time=00:01:51.97 bitrate= 242.9kbits/s speed=   1x    size=    3336kB time=00:01:52.47 bitrate= 243.0kbits/s speed=   1x    size=    3351kB time=00:01:52.99 bitrate= 243.0kbits/s speed=   1x    size=    3366kB time=00:01:53.49 bitrate= 243.0kbits/s speed=   1x    size=    3381kB time=00:01:53.98 bitrate= 243.0kbits/s speed=   1x    size=    3395kB time=00:01:54.48 bitrate= 243.0kbits/s speed=   1x    size=    3410kB time=00:01:54.98 bitrate= 243.0kbits/s speed=   1x    size=    3426kB time=00:01:55.50 bitrate= 243.0kbits/s speed=   1x    size=    3440kB time=00:01:55.99 bitrate= 242.9kbits/s speed=   1x    size=    3455kB time=00:01:56.49 bitrate= 242.9kbits/s speed=   1x    size=    3470kB time=00:01:56.99 bitrate= 242.9kbits/s speed=   1x    size=    3484kB time=00:01:57.48 bitrate= 242.9kbits/s speed=   1x    size=    3500kB time=00:01:58.01 bitrate= 243.0kbits/s speed=   1x    size=    3515kB time=00:01:58.50 bitrate= 242.9kbits/s speed=   1x    size=    3529kB time=00:01:59.00 bitrate= 243.0kbits/s speed=   1x    size=    3544kB time=00:01:59.49 bitrate= 243.0kbits/s speed=   1x    size=    3559kB time=00:01:59.99 bitrate= 243.0kbits/s speed=   1x    size=    3574kB time=00:02:00.51 bitrate= 243.0kbits/s speed=   1x    size=    3589kB time=00:02:01.01 bitrate= 243.0kbits/s speed=   1x    size=    3604kB time=00:02:01.51 bitrate= 243.0kbits/s speed=   1x    size=    3618kB time=00:02:02.00 bitrate= 242.9kbits/s speed=   1x    size=    3634kB time=00:02:02.52 bitrate= 242.9kbits/s speed=   1x    size=    3649kB time=00:02:03.02 bitrate= 242.9kbits/s speed=   1x    size=    3663kB time=00:02:03.52 bitrate= 242.9kbits/s speed=   1x    size=    3678kB time=00:02:04.01 bitrate= 242.9kbits/s speed=   1x    size=    3694kB time=00:02:04.54 bitrate= 243.0kbits/s speed=   1x    size=    3708kB time=00:02:05.03 bitrate= 242.9kbits/s speed=   1x    size=    3723kB time=00:02:05.53 bitrate= 243.0kbits/s speed=   1x    size=    3738kB time=00:02:06.02 bitrate= 243.0kbits/s speed=   1x    size=    3752kB time=00:02:06.52 bitrate= 243.0kbits/s speed=   1x    size=    3768kB time=00:02:07.04 bitrate= 243.0kbits/s speed=   1x    size=    3783kB time=00:02:07.54 bitrate= 243.0kbits/s speed=   1x    size=    3798kB time=00:02:08.04 bitrate= 243.0kbits/s speed=   1x    size=    3812kB time=00:02:08.53 bitrate= 242.9kbits/s speed=   1x    size=    3827kB time=00:02:09.03 bitrate= 242.9kbits/s speed=   1x    size=    3842kB time=00:02:09.55 bitrate= 242.9kbits/s speed=   1x    size=    3857kB time=00:02:10.05 bitrate= 242.9kbits/s speed=   1x    size=    3872kB time=00:02:10.54 bitrate= 242.9kbits/s speed=   1x    size=    3886kB time=00:02:11.04 bitrate= 243.0kbits/s speed=   1x    size=    3901kB time=00:02:11.54 bitrate= 243.0kbits/s speed=   1x    size=    3917kB time=00:02:12.06 bitrate= 243.0kbits/s speed=   1x    size=    3931kB time=00:02:12.56 bitrate= 243.0kbits/s speed=   1x    size=    3946kB time=00:02:13.05 bitrate= 243.0kbits/s speed=   1x    size=    3961kB time=00:02:13.55 bitrate= 243.0kbits/s speed=   1x    size=    3976kB time=00:02:14.04 bitrate= 243.0kbits/s speed=   1x    size=    3991kB time=00:02:14.57 bitrate= 243.0kbits/s speed=   1x    size=    4006kB time=00:02:15.06 bitrate= 242.9kbits/s speed=   1x    size=    4020kB time=00:02:15.56 bitrate= 242.9kbits/s speed=   1x    size=    4035kB time=00:02:16.06 bitrate= 243.0kbits/s speed=   1x    size=    4051kB time=00:02:16.58 bitrate= 242.9kbits/s speed=   1x    size=    4065kB time=00:02:17.07 bitrate= 242.9kbits/s speed=   1x    size=    4080kB time=00:02:17.57 bitrate= 243.0kbits/s speed=   1x    size=    4095kB time=00:02:18.07 bitrate= 243.0kbits/s speed=   1x    size=    4110kB time=00:02:18.59 bitrate= 243.0kbits/s speed=   1x    size=    4125kB time=00:02:19.09 bitrate= 243.0kbits/s speed=   1x    size=    4140kB time=00:02:19.58 bitrate= 243.0kbits/s speed=   1x    size=    4155kB time=00:02:20.08 bitrate= 243.0kbits/s speed=   1x    size=    4169kB time=00:02:20.58 bitrate= 243.0kbits/s speed=   1x    size=    4185kB time=00:02:21.10 bitrate= 243.0kbits/s speed=   1x    size=    4199kB time=00:02:21.59 bitrate= 242.9kbits/s speed=   1x    size=    4214kB time=00:02:22.09 bitrate= 242.9kbits/s speed=   1x    size=    4229kB time=00:02:22.59 bitrate= 243.0kbits/s speed=   1x    size=    4244kB time=00:02:23.08 bitrate= 243.0kbits/s speed=   1x    size=    4259kB time=00:02:23.61 bitrate= 242.9kbits/s speed=   1x    size=    4274kB time=00:02:24.10 bitrate= 243.0kbits/s speed=   1x    size=    4289kB time=00:02:24.60 bitrate= 243.0kbits/s speed=   1x    size=    4303kB time=00:02:25.09 bitrate= 243.0kbits/s speed=   1x    size=    4318kB time=00:02:25.59 bitrate= 243.0kbits/s speed=   1x    size=    4334kB time=00:02:26.11 bitrate= 243.0kbits/s speed=   1x    size=    4348kB time=00:02:26.61 bitrate= 243.0kbits/s speed=   1x    size=    4363kB time=00:02:27.11 bitrate= 243.0kbits/s speed=   1x    size=    4377kB time=00:02:27.60 bitrate= 242.9kbits/s speed=   1x    size=    4393kB time=00:02:28.12 bitrate= 242.9kbits/s speed=   1x    size=    4408kB time=00:02:28.62 bitrate= 242.9kbits/s speed=   1x    size=    4423kB time=00:02:29.12 bitrate= 243.0kbits/s speed=   1x    size=    4437kB time=00:02:29.61 bitrate= 243.0kbits/s speed=   1x    size=    4452kB time=00:02:30.11 bitrate= 243.0kbits/s speed=   1x    size=    4468kB time=00:02:30.63 bitrate= 243.0kbits/s speed=   1x    size=    4482kB time=00:02:31.13 bitrate= 243.0kbits/s speed=   1x    size=    4497kB time=00:02:31.62 bitrate= 243.0kbits/s speed=   1x    size=    4512kB time=00:02:32.12 bitrate= 243.0kbits/s speed=   1x    size=    4527kB time=00:02:32.62 bitrate= 243.0kbits/s speed=   1x    size=    4542kB time=00:02:33.14 bitrate= 243.0kbits/s speed=   1x    size=    4557kB time=00:02:33.64 bitrate= 243.0kbits/s speed=   1x    size=    4571kB time=00:02:34.13 bitrate= 242.9kbits/s speed=   1x    size=    4586kB time=00:02:34.63 bitrate= 243.0kbits/s speed=   1x    size=    4601kB time=00:02:35.13 bitrate= 242.9kbits/s speed=   1x    size=    4616kB time=00:02:35.65 bitrate= 243.0kbits/s speed=   1x    size=    4631kB time=00:02:36.14 bitrate= 243.0kbits/s speed=   1x    size=    4646kB time=00:02:36.64 bitrate= 243.0kbits/s speed=   1x    size=    4661kB time=00:02:37.14 bitrate= 243.0kbits/s speed=   1x    size=    4675kB time=00:02:37.63 bitrate= 243.0kbits/s speed=   1x    size=    4691kB time=00:02:38.16 bitrate= 243.0kbits/s speed=   1x    size=    4706kB time=00:02:38.65 bitrate= 243.0kbits/s speed=   1x    size=    4720kB time=00:02:39.15 bitrate= 243.0kbits/s speed=   1x    size=    4735kB time=00:02:39.64 bitrate= 243.0kbits/s speed=   1x    size=    4750kB time=00:02:40.17 bitrate= 243.0kbits/s speed=   1x    size=    4765kB time=00:02:40.66 bitrate= 242.9kbits/s speed=   1x    size=    4780kB time=00:02:41.16 bitrate= 243.0kbits/s speed=   1x    size=    4794kB time=00:02:41.66 bitrate= 242.9kbits/s speed=   1x    size=    4809kB time=00:02:42.15 bitrate= 243.0kbits/s speed=   1x    size=    4825kB time=00:02:42.67 bitrate= 243.0kbits/s speed=   1x    size=    4839kB time=00:02:43.17 bitrate= 243.0kbits/s speed=   1x    size=    4854kB time=00:02:43.67 bitrate= 243.0kbits/s speed=   1x    size=    4869kB time=00:02:44.16 bitrate= 243.0kbits/s speed=   1x    size=    4885kB time=00:02:44.69 bitrate= 243.0kbits/s speed=   1x    size=    4899kB time=00:02:45.18 bitrate= 243.0kbits/s speed=   1x    size=    4914kB time=00:02:45.68 bitrate= 243.0kbits/s speed=   1x    size=    4929kB time=00:02:46.18 bitrate= 243.0kbits/s speed=   1x    size=    4943kB time=00:02:46.67 bitrate= 242.9kbits/s speed=   1x    size=    4958kB time=00:02:47.19 bitrate= 242.9kbits/s speed=   1x    size=    4973kB time=00:02:47.69 bitrate= 243.0kbits/s speed=   1x    size=    4988kB time=00:02:48.19 bitrate= 243.0kbits/s speed=   1x    size=    5003kB time=00:02:48.68 bitrate= 243.0kbits/s speed=   1x    size=    5018kB time=00:02:49.21 bitrate= 243.0kbits/s speed=   1x    size=    5033kB time=00:02:49.70 bitrate= 243.0kbits/s speed=   1x    size=    5048kB time=00:02:50.20 bitrate= 243.0kbits/s speed=   1x    size=    5063kB time=00:02:50.69 bitrate= 243.0kbits/s speed=   1x    size=    5077kB time=00:02:51.19 bitrate= 243.0kbits/s speed=   1x    size=    5093kB time=00:02:51.71 bitrate= 243.0kbits/s speed=   1x    size=    5108kB time=00:02:52.21 bitrate= 243.0kbits/s speed=   1x    size=    5122kB time=00:02:52.71 bitrate= 243.0kbits/s speed=   1x    size=    5137kB time=00:02:53.20 bitrate= 242.9kbits/s speed=   1x    size=    5151kB time=00:02:53.70 bitrate= 242.9kbits/s speed=   1x    size=    5167kB time=00:02:54.22 bitrate= 243.0kbits/s speed=   1x    size=    5182kB time=00:02:54.72 bitrate= 243.0kbits/s speed=   1x    size=    5197kB time=00:02:55.21 bitrate= 243.0kbits/s speed=   1x    size=    5211kB time=00:02:55.71 bitrate= 243.0kbits/s speed=   1x    size=    5226kB time=00:02:56.21 bitrate= 243.0kbits/s speed=   1x    size=    5242kB time=00:02:56.73 bitrate= 243.0kbits/s speed=   1x    size=    5256kB time=00:02:57.22 bitrate= 243.0kbits/s speed=   1x    size=    5271kB time=00:02:57.72 bitrate= 243.0kbits/s speed=   1x    size=    5286kB time=00:02:58.22 bitrate= 243.0kbits/s speed=   1x    size=    5301kB time=00:02:58.74 bitrate= 243.0kbits/s speed=   1x    size=    5316kB time=00:02:59.24 bitrate= 243.0kbits/s speed=   1x    size=    5330kB time=00:02:59.73 bitrate= 242.9kbits/s speed=   1x    size=    5345kB time=00:03:00.23 bitrate= 242.9kbits/s speed=   1x    size=    5361kB time=00:03:00.75 bitrate= 243.0kbits/s speed=   1x    size=    5375kB time=00:03:01.25 bitrate= 243.0kbits/s speed=   1x    size=    5390kB time=00:03:01.74 bitrate= 243.0kbits/s speed=   1x    size=    5405kB time=00:03:02.24 bitrate= 243.0kbits/s speed=   1x    size=    5420kB time=00:03:02.74 bitrate= 243.0kbits/s speed=   1x    size=    5435kB time=00:03:03.26 bitrate= 243.0kbits/s speed=   1x    size=    5450kB time=00:03:03.76 bitrate= 243.0kbits/s speed=   1x    size=    5465kB time=00:03:04.25 bitrate= 243.0kbits/s speed=   1x    size=    5480kB time=00:03:04.75 bitrate= 243.0kbits/s speed=   1x    size=    5495kB time=00:03:05.27 bitrate= 243.0kbits/s speed=   1x    size=    5510kB time=00:03:05.77 bitrate= 243.0kbits/s speed=   1x    size=    5524kB time=00:03:06.26 bitrate= 242.9kbits/s speed=   1x    size=    5539kB time=00:03:06.76 bitrate= 242.9kbits/s speed=   1x    size=    5554kB time=00:03:07.26 bitrate= 243.0kbits/s speed=   1x    size=    5569kB time=00:03:07.78 bitrate= 243.0kbits/s speed=   1x    size=    5584kB time=00:03:08.27 bitrate= 243.0kbits/s speed=   1x    size=    5599kB time=00:03:08.77 bitrate= 243.0kbits/s speed=   1x    size=    5613kB time=00:03:09.27 bitrate= 243.0kbits/s speed=   1x    size=    5629kB time=00:03:09.79 bitrate= 243.0kbits/s speed=   1x    size=    5644kB time=00:03:10.29 bitrate= 243.0kbits/s speed=   1x    size=    5659kB time=00:03:10.78 bitrate= 243.0kbits/s speed=   1x    size=    5673kB time=00:03:11.28 bitrate= 243.0kbits/s speed=   1x    size=    5689kB time=00:03:11.80 bitrate= 243.0kbits/s speed=   1x    size=    5704kB time=00:03:12.30 bitrate= 243.0kbits/s speed=   1x    size=    5718kB time=00:03:12.79 bitrate= 243.0kbits/s speed=   1x    size=    5733kB time=00:03:13.29 bitrate= 242.9kbits/s speed=   1x    size=    5747kB time=00:03:13.79 bitrate= 243.0kbits/s speed=   1x    size=    5763kB time=00:03:14.31 bitrate= 243.0kbits/s speed=   1x    size=    5778kB time=00:03:14.81 bitrate= 243.0kbits/s speed=   1x    size=    5792kB time=00:03:15.30 bitrate= 243.0kbits/s speed=   1x    size=    5807kB time=00:03:15.80 bitrate= 243.0kbits/s speed=   1x    size=    5822kB time=00:03:16.29 bitrate= 243.0kbits/s speed=   1x    size=    5837kB time=00:03:16.82 bitrate= 243.0kbits/s speed=   1x    size=    5852kB time=00:03:17.31 bitrate= 243.0kbits/s speed=   1x    size=    5867kB time=00:03:17.81 bitrate= 243.0kbits/s speed=   1x    size=    5882kB time=00:03:18.31 bitrate= 243.0kbits/s speed=   1x    size=    5897kB time=00:03:18.83 bitrate= 243.0kbits/s speed=   1x    size=    5912kB time=00:03:19.32 bitrate= 243.0kbits/s speed=   1x    size=    5926kB time=00:03:19.82 bitrate= 242.9kbits/s speed=   1x    size=    5941kB time=00:03:20.32 bitrate= 243.0kbits/s speed=   1x    size=    5956kB time=00:03:20.81 bitrate= 243.0kbits/s speed=   1x    size=    5971kB time=00:03:21.34 bitrate= 243.0kbits/s speed=   1x    size=    5986kB time=00:03:21.83 bitrate= 243.0kbits/s speed=   1x    size=    6001kB time=00:03:22.33 bitrate= 243.0kbits/s speed=   1x    size=    6016kB time=00:03:22.82 bitrate= 243.0kbits/s speed=   1x    size=    6031kB time=00:03:23.35 bitrate= 243.0kbits/s speed=   1x    size=    6046kB time=00:03:23.84 bitrate= 243.0kbits/s speed=   1x    size=    6061kB time=00:03:24.34 bitrate= 243.0kbits/s speed=   1x    size=    6075kB time=00:03:24.84 bitrate= 243.0kbits/s speed=   1x    size=    6090kB time=00:03:25.33 bitrate= 243.0kbits/s speed=   1x    size=    6105kB time=00:03:25.86 bitrate= 243.0kbits/s speed=   1x    size=    6120kB time=00:03:26.35 bitrate= 243.0kbits/s speed=   1x    size=    6135kB time=00:03:26.85 bitrate= 243.0kbits/s speed=   1x    size=    6149kB time=00:03:27.34 bitrate= 243.0kbits/s speed=   1x    size=    6164kB time=00:03:27.84 bitrate= 243.0kbits/s speed=   1x    size=    6180kB time=00:03:28.36 bitrate= 243.0kbits/s speed=   1x    size=    6194kB time=00:03:28.86 bitrate= 243.0kbits/s speed=   1x    size=    6209kB time=00:03:29.36 bitrate= 243.0kbits/s speed=   1x    size=    6224kB time=00:03:29.85 bitrate= 243.0kbits/s speed=   1x    size=    6239kB time=00:03:30.35 bitrate= 243.0kbits/s speed=   1x    size=    6254kB time=00:03:30.87 bitrate= 243.0kbits/s speed=   1x    size=    6269kB time=00:03:31.37 bitrate= 243.0kbits/s speed=   1x    size=    6283kB time=00:03:31.86 bitrate= 243.0kbits/s speed=   1x    size=    6298kB time=00:03:32.36 bitrate= 243.0kbits/s speed=   1x    size=    6314kB time=00:03:32.88 bitrate= 243.0kbits/s speed=   1x    size=    6328kB time=00:03:33.38 bitrate= 243.0kbits/s speed=   1x    size=    6343kB time=00:03:33.87 bitrate= 243.0kbits/s speed=   1x    size=    6358kB time=00:03:34.37 bitrate= 243.0kbits/s speed=   1x    size=    6373kB time=00:03:34.87 bitrate= 243.0kbits/s speed=   1x    size=    6388kB time=00:03:35.39 bitrate= 243.0kbits/s speed=   1x    size=    6403kB time=00:03:35.89 bitrate= 243.0kbits/s speed=   1x    size=    6418kB time=00:03:36.38 bitrate= 243.0kbits/s speed=   1x    size=    6433kB time=00:03:36.88 bitrate= 243.0kbits/s speed=   1x    size=    6447kB time=00:03:37.38 bitrate= 243.0kbits/s speed=   1x    size=    6463kB time=00:03:37.90 bitrate= 243.0kbits/s speed=   1x    size=    6477kB time=00:03:38.39 bitrate= 243.0kbits/s speed=   1x    size=    6492kB time=00:03:38.89 bitrate= 243.0kbits/s speed=   1x    size=    6507kB time=00:03:39.39 bitrate= 243.0kbits/s speed=   1x    size=    6522kB time=00:03:39.91 bitrate= 243.0kbits/s speed=   1x    size=    6537kB time=00:03:40.41 bitrate= 243.0kbits/s speed=   1x    size=    6552kB time=00:03:40.90 bitrate= 243.0kbits/s speed=   1x    size=    6566kB time=00:03:41.40 bitrate= 243.0kbits/s speed=   1x    size=    6581kB time=00:03:41.89 bitrate= 243.0kbits/s speed=   1x    size=    6597kB time=00:03:42.42 bitrate= 243.0kbits/s speed=   1x    size=    6611kB time=00:03:42.91 bitrate= 243.0kbits/s speed=   1x    size=    6626kB time=00:03:43.41 bitrate= 243.0kbits/s speed=   1x    size=    6641kB time=00:03:43.91 bitrate= 243.0kbits/s speed=   1x    size=    6656kB time=00:03:44.43 bitrate= 243.0kbits/s speed=   1x    size=    6671kB time=00:03:44.92 bitrate= 243.0kbits/s speed=   1x    size=    6686kB time=00:03:45.42 bitrate= 243.0kbits/s speed=   1x    size=    6700kB time=00:03:45.92 bitrate= 243.0kbits/s speed=   1x    size=    6716kB time=00:03:46.44 bitrate= 243.0kbits/s speed=   1x    size=    6731kB time=00:03:46.94 bitrate= 243.0kbits/s speed=   1x    size=    6745kB time=00:03:47.43 bitrate= 243.0kbits/s speed=   1x    size=    6760kB time=00:03:47.93 bitrate= 243.0kbits/s speed=   1x    size=    6776kB time=00:03:48.45 bitrate= 243.0kbits/s speed=   1x    size=    6790kB time=00:03:48.95 bitrate= 243.0kbits/s speed=   1x    size=    6805kB time=00:03:49.44 bitrate= 243.0kbits/s speed=   1x    size=    6820kB time=00:03:49.94 bitrate= 243.0kbits/s speed=   1x    size=    6835kB time=00:03:50.44 bitrate= 243.0kbits/s speed=   1x    size=    6850kB time=00:03:50.96 bitrate= 243.0kbits/s speed=   1x    size=    6865kB time=00:03:51.46 bitrate= 243.0kbits/s speed=   1x    size=    6879kB time=00:03:51.95 bitrate= 243.0kbits/s speed=   1x    size=    6894kB time=00:03:52.45 bitrate= 243.0kbits/s speed=   1x    size=    6910kB time=00:03:52.97 bitrate= 243.0kbits/s speed=   1x    size=    6924kB time=00:03:53.47 bitrate= 243.0kbits/s speed=   1x    size=    6939kB time=00:03:53.96 bitrate= 243.0kbits/s speed=   1x    size=    6954kB time=00:03:54.46 bitrate= 243.0kbits/s speed=   1x    size=    6968kB time=00:03:54.96 bitrate= 243.0kbits/s speed=   1x    size=    6984kB time=00:03:55.48 bitrate= 243.0kbits/s speed=   1x    size=    6999kB time=00:03:55.97 bitrate= 243.0kbits/s speed=   1x    size=    7014kB time=00:03:56.47 bitrate= 243.0kbits/s speed=   1x    size=    7028kB time=00:03:56.97 bitrate= 243.0kbits/s speed=   1x    size=    7044kB time=00:03:57.49 bitrate= 243.0kbits/s speed=   1x    size=    7058kB time=00:03:57.99 bitrate= 243.0kbits/s speed=   1x    size=    7073kB time=00:03:58.48 bitrate= 243.0kbits/s speed=   1x    size=    7088kB time=00:03:58.98 bitrate= 243.0kbits/s speed=   1x    size=    7103kB time=00:03:59.50 bitrate= 243.0kbits/s speed=   1x    size=    7118kB time=00:04:00.00 bitrate= 243.0kbits/s speed=   1x    size=    7133kB time=00:04:00.49 bitrate= 243.0kbits/s speed=   1x    size=    7147kB time=00:04:00.99 bitrate= 243.0kbits/s speed=   1x    size=    7162kB time=00:04:01.49 bitrate= 243.0kbits/s speed=   1x    size=    7178kB time=00:04:02.01 bitrate= 243.0kbits/s speed=   1x    size=    7192kB time=00:04:02.50 bitrate= 243.0kbits/s speed=   1x    size=    7207kB time=00:04:03.00 bitrate= 243.0kbits/s speed=   1x    size=    7222kB time=00:04:03.50 bitrate= 243.0kbits/s speed=   1x    size=    7236kB time=00:04:03.99 bitrate= 243.0kbits/s speed=   1x    size=    7252kB time=00:04:04.52 bitrate= 243.0kbits/s speed=   1x    size=    7267kB time=00:04:05.01 bitrate= 243.0kbits/s speed=   1x    size=    7281kB time=00:04:05.51 bitrate= 243.0kbits/s speed=   1x    size=    7296kB time=00:04:06.01 bitrate= 243.0kbits/s speed=   1x    size=    7311kB time=00:04:06.50 bitrate= 243.0kbits/s speed=   1x    size=    7326kB time=00:04:07.02 bitrate= 243.0kbits/s speed=   1x    size=    7341kB time=00:04:07.52 bitrate= 243.0kbits/s speed=   1x    size=    7356kB time=00:04:08.02 bitrate= 243.0kbits/s speed=   1x    size=    7371kB time=00:04:08.51 bitrate= 243.0kbits/s speed=   1x    size=    7386kB time=00:04:09.04 bitrate= 243.0kbits/s speed=   1x    size=    7401kB time=00:04:09.53 bitrate= 243.0kbits/s speed=   1x    size=    7416kB time=00:04:10.03 bitrate= 243.0kbits/s speed=   1x    size=    7430kB time=00:04:10.52 bitrate= 243.0kbits/s speed=   1x    size=    7445kB time=00:04:11.02 bitrate= 243.0kbits/s speed=   1x    size=    7460kB time=00:04:11.54 bitrate= 243.0kbits/s speed=   1x    size=    7475kB time=00:04:12.04 bitrate= 243.0kbits/s speed=   1x    size=    7490kB time=00:04:12.54 bitrate= 243.0kbits/s speed=   1x    size=    7505kB time=00:04:13.03 bitrate= 243.0kbits/s speed=   1x    size=    7520kB time=00:04:13.55 bitrate= 243.0kbits/s speed=   1x    size=    7535kB time=00:04:14.05 bitrate= 243.0kbits/s speed=   1x    size=    7550kB time=00:04:14.55 bitrate= 243.0kbits/s speed=   1x    size=    7564kB time=00:04:15.04 bitrate= 243.0kbits/s speed=   1x    size=    7580kB time=00:04:15.57 bitrate= 243.0kbits/s speed=   1x    size=    7595kB time=00:04:16.06 bitrate= 243.0kbits/s speed=   1x    size=    7609kB time=00:04:16.56 bitrate= 243.0kbits/s speed=   1x    size=    7624kB time=00:04:17.06 bitrate= 243.0kbits/s speed=   1x    size=    7639kB time=00:04:17.55 bitrate= 243.0kbits/s speed=   1x    size=    7654kB time=00:04:18.07 bitrate= 243.0kbits/s speed=   1x    size=    7669kB time=00:04:18.57 bitrate= 243.0kbits/s speed=   1x    size=    7684kB time=00:04:19.07 bitrate= 243.0kbits/s speed=   1x    size=    7699kB time=00:04:19.59 bitrate= 243.0kbits/s speed=   1x    size=    7714kB time=00:04:20.09 bitrate= 243.0kbits/s speed=   1x    size=    7729kB time=00:04:20.58 bitrate= 243.0kbits/s speed=   1x    size=    7743kB time=00:04:21.08 bitrate= 243.0kbits/s speed=   1x    size=    7758kB time=00:04:21.57 bitrate= 243.0kbits/s speed=   1x    size=    7774kB time=00:04:22.10 bitrate= 243.0kbits/s speed=   1x    size=    7788kB time=00:04:22.59 bitrate= 243.0kbits/s speed=   1x    size=    7803kB time=00:04:23.09 bitrate= 243.0kbits/s speed=   1x    size=    7817kB time=00:04:23.59 bitrate= 243.0kbits/s speed=   1x    size=    7833kB time=00:04:24.11 bitrate= 243.0kbits/s speed=   1x    size=    7848kB time=00:04:24.60 bitrate= 243.0kbits/s speed=   1x    size=    7862kB time=00:04:25.10 bitrate= 243.0kbits/s speed=   1x    size=    7877kB time=00:04:25.60 bitrate= 243.0kbits/s speed=   1x    size=    7892kB time=00:04:26.09 bitrate= 243.0kbits/s speed=   1x    size=    7908kB time=00:04:26.62 bitrate= 243.0kbits/s speed=   1x    size=    7922kB time=00:04:27.11 bitrate= 243.0kbits/s speed=   1x    size=    7937kB time=00:04:27.61 bitrate= 243.0kbits/s speed=   1x    size=    7952kB time=00:04:28.10 bitrate= 243.0kbits/s speed=   1x    size=    7966kB time=00:04:28.60 bitrate= 243.0kbits/s speed=   1x    size=    7982kB time=00:04:29.12 bitrate= 243.0kbits/s speed=   1x    size=    7997kB time=00:04:29.62 bitrate= 243.0kbits/s speed=   1x    size=    8011kB time=00:04:30.12 bitrate= 243.0kbits/s speed=   1x    size=    8026kB time=00:04:30.61 bitrate= 243.0kbits/s speed=   1x    size=    8041kB time=00:04:31.14 bitrate= 243.0kbits/s speed=   1x    size=    8056kB time=00:04:31.63 bitrate= 243.0kbits/s speed=   1x    size=    8071kB time=00:04:32.13 bitrate= 243.0kbits/s speed=   1x    size=    8086kB time=00:04:32.62 bitrate= 243.0kbits/s speed=   1x    size=    8101kB time=00:04:33.12 bitrate= 243.0kbits/s speed=   1x    size=    8116kB time=00:04:33.64 bitrate= 243.0kbits/s speed=   1x    size=    8131kB time=00:04:34.14 bitrate= 243.0kbits/s speed=   1x    size=    8146kB time=00:04:34.64 bitrate= 243.0kbits/s speed=   1x    size=    8160kB time=00:04:35.13 bitrate= 243.0kbits/s speed=   1x    size=    8175kB time=00:04:35.63 bitrate= 243.0kbits/s speed=   1x    size=    8190kB time=00:04:36.15 bitrate= 243.0kbits/s speed=   1x    size=    8205kB time=00:04:36.65 bitrate= 243.0kbits/s speed=   1x    size=    8220kB time=00:04:37.14 bitrate= 243.0kbits/s speed=   1x    size=    8234kB time=00:04:37.64 bitrate= 243.0kbits/s speed=   1x    size=    8250kB time=00:04:38.16 bitrate= 243.0kbits/s speed=   1x    size=    8265kB time=00:04:38.66 bitrate= 243.0kbits/s speed=   1x    size=    8279kB time=00:04:39.15 bitrate= 243.0kbits/s speed=   1x    size=    8294kB time=00:04:39.65 bitrate= 243.0kbits/s speed=   1x    size=    8310kB time=00:04:40.17 bitrate= 243.0kbits/s speed=   1x    size=    8324kB time=00:04:40.67 bitrate= 243.0kbits/s speed=   1x    size=    8339kB time=00:04:41.17 bitrate= 243.0kbits/s speed=   1x    size=    8354kB time=00:04:41.66 bitrate= 243.0kbits/s speed=   1x    size=    8369kB time=00:04:42.18 bitrate= 243.0kbits/s speed=   1x    size=    8384kB time=00:04:42.68 bitrate= 243.0kbits/s speed=   1x    size=    8398kB time=00:04:43.18 bitrate= 243.0kbits/s speed=   1x    size=    8413kB time=00:04:43.67 bitrate= 243.0kbits/s speed=   1x    size=    8428kB time=00:04:44.17 bitrate= 243.0kbits/s speed=   1x    size=    8443kB time=00:04:44.69 bitrate= 243.0kbits/s speed=   1x    size=    8458kB time=00:04:45.19 bitrate= 243.0kbits/s speed=   1x    size=    8473kB time=00:04:45.69 bitrate= 243.0kbits/s speed=   1x    size=    8488kB time=00:04:46.18 bitrate= 243.0kbits/s speed=   1x    size=    8503kB time=00:04:46.68 bitrate= 243.0kbits/s speed=   1x    size=    8518kB time=00:04:47.20 bitrate= 243.0kbits/s speed=   1x    size=    8533kB time=00:04:47.70 bitrate= 243.0kbits/s speed=   1x    size=    8548kB time=00:04:48.19 bitrate= 243.0kbits/s speed=   1x    size=    8562kB time=00:04:48.69 bitrate= 243.0kbits/s speed=   1x    size=    8578kB time=00:04:49.21 bitrate= 243.0kbits/s speed=   1x    size=    8592kB time=00:04:49.71 bitrate= 243.0kbits/s speed=   1x    size=    8607kB time=00:04:50.20 bitrate= 243.0kbits/s speed=   1x    size=    8622kB time=00:04:50.70 bitrate= 243.0kbits/s speed=   1x    size=    8636kB time=00:04:51.20 bitrate= 243.0kbits/s speed=   1x    size=    8652kB time=00:04:51.72 bitrate= 243.0kbits/s speed=   1x    size=    8667kB time=00:04:52.22 bitrate= 243.0kbits/s speed=   1x    size=    8682kB time=00:04:52.71 bitrate= 243.0kbits/s speed=   1x    size=    8696kB time=00:04:53.21 bitrate= 243.0kbits/s speed=   1x    size=    8711kB time=00:04:53.70 bitrate= 243.0kbits/s speed=   1x    size=    8727kB time=00:04:54.23 bitrate= 243.0kbits/s speed=   1x    size=    8741kB time=00:04:54.72 bitrate= 243.0kbits/s speed=   1x    size=    8756kB time=00:04:55.22 bitrate= 243.0kbits/s speed=   1x    size=    8770kB time=00:04:55.72 bitrate= 243.0kbits/s speed=   1x    size=    8786kB time=00:04:56.24 bitrate= 243.0kbits/s speed=   1x    size=    8801kB time=00:04:56.74 bitrate= 243.0kbits/s speed=   1x    size=    8815kB time=00:04:57.23 bitrate= 243.0kbits/s speed=   1x    size=    8830kB time=00:04:57.73 bitrate= 243.0kbits/s speed=   1x    size=    8846kB time=00:04:58.25 bitrate= 243.0kbits/s speed=   1x    size=    8860kB time=00:04:58.75 bitrate= 243.0kbits/s speed=   1x    size=    8875kB time=00:04:59.24 bitrate= 243.0kbits/s speed=   1x    size=    8890kB time=00:04:59.74 bitrate= 243.0kbits/s speed=   1x    size=    8905kB time=00:05:00.26 bitrate= 243.0kbits/s speed=   1x    size=    8920kB time=00:05:00.76 bitrate= 243.0kbits/s speed=   1x    size=    8935kB time=00:05:01.25 bitrate= 243.0kbits/s speed=   1x    size=    8950kB time=00:05:01.75 bitrate= 243.0kbits/s speed=   1x    size=    8964kB time=00:05:02.25 bitrate= 243.0kbits/s speed=   1x    size=    8980kB time=00:05:02.77 bitrate= 243.0kbits/s speed=   1x    size=    8994kB time=00:05:03.27 bitrate= 243.0kbits/s speed=   1x    size=    9009kB time=00:05:03.76 bitrate= 243.0kbits/s speed=   1x    size=    9024kB time=00:05:04.26 bitrate= 243.0kbits/s speed=   1x    size=    9039kB time=00:05:04.75 bitrate= 243.0kbits/s speed=   1x    size=    9054kB time=00:05:05.28 bitrate= 243.0kbits/s speed=   1x    size=    9069kB time=00:05:05.77 bitrate= 243.0kbits/s speed=   1x    size=    9084kB time=00:05:06.27 bitrate= 243.0kbits/s speed=   1x    size=    9098kB time=00:05:06.77 bitrate= 243.0kbits/s speed=   1x    size=    9114kB time=00:05:07.29 bitrate= 243.0kbits/s speed=   1x    size=    9129kB time=00:05:07.78 bitrate= 243.0kbits/s speed=   1x    size=    9144kB time=00:05:08.28 bitrate= 243.0kbits/s speed=   1x    size=    9158kB time=00:05:08.78 bitrate= 243.0kbits/s speed=   1x    size=    9173kB time=00:05:09.30 bitrate= 243.0kbits/s speed=   1x    size=    9188kB time=00:05:09.80 bitrate= 243.0kbits/s speed=   1x    size=    9203kB time=00:05:10.29 bitrate= 243.0kbits/s speed=   1x    size=    9218kB time=00:05:10.79 bitrate= 243.0kbits/s speed=   1x    size=    9233kB time=00:05:11.31 bitrate= 243.0kbits/s speed=   1x    size=    9248kB time=00:05:11.81 bitrate= 243.0kbits/s speed=   1x    size=    9263kB time=00:05:12.30 bitrate= 243.0kbits/s speed=   1x    size=    9277kB time=00:05:12.80 bitrate= 243.0kbits/s speed=   1x    size=    9292kB time=00:05:13.30 bitrate= 243.0kbits/s speed=   1x    size=    9308kB time=00:05:13.82 bitrate= 243.0kbits/s speed=   1x    size=    9322kB time=00:05:14.32 bitrate= 243.0kbits/s speed=   1x    size=    9337kB time=00:05:14.81 bitrate= 243.0kbits/s speed=   1x    size=    9352kB time=00:05:15.31 bitrate= 243.0kbits/s speed=   1x    size=    9366kB time=00:05:15.80 bitrate= 243.0kbits/s speed=   1x    size=    9382kB time=00:05:16.33 bitrate= 243.0kbits/s speed=   1x    size=    9397kB time=00:05:16.82 bitrate= 243.0kbits/s speed=   1x    size=    9411kB time=00:05:17.32 bitrate= 243.0kbits/s speed=   1x    size=    9426kB time=00:05:17.82 bitrate= 243.0kbits/s speed=   1x    size=    9441kB time=00:05:18.34 bitrate= 243.0kbits/s speed=   1x    size=    9456kB time=00:05:18.83 bitrate= 243.0kbits/s speed=   1x    size=    9471kB time=00:05:19.33 bitrate= 243.0kbits/s speed=   1x    size=    9486kB time=00:05:19.83 bitrate= 243.0kbits/s speed=   1x    size=    9501kB time=00:05:20.32 bitrate= 243.0kbits/s speed=   1x    size=    9516kB time=00:05:20.85 bitrate= 243.0kbits/s speed=   1x    size=    9531kB time=00:05:21.34 bitrate= 243.0kbits/s speed=   1x    size=    9545kB time=00:05:21.84 bitrate= 243.0kbits/s speed=   1x    size=    9560kB time=00:05:22.34 bitrate= 243.0kbits/s speed=   1x    size=    9575kB time=00:05:22.83 bitrate= 243.0kbits/s speed=   1x    size=    9590kB time=00:05:23.35 bitrate= 243.0kbits/s speed=   1x    size=    9605kB time=00:05:23.85 bitrate= 243.0kbits/s speed=   1x    size=    9620kB time=00:05:24.35 bitrate= 243.0kbits/s speed=   1x    